# xmcd CD database file
#
# Track frame offsets:
#	150
#	9740
#	24305
#	36877
#	51800
#	64610
#	73365
#	84765
#	96952
#	112275
#	125887
#	139207
#	159870
#	175285
#	188342
#	200617
#
# Disc length: 2868 seconds
#
# Revision: 3
# Processed by: cddbd v1.5.1PL2 Copyright (c) Steve Scherf et al.
# Submitted via: CDex 1.70beta1
#
DISCID=df0b3210
DTITLE=Various Artist - Music That Matters - Rolling Stones
DYEAR=2003
DGENRE=
TTITLE0=James Brown - Papa's Got A Brand New Bag (Part 1)
TTITLE1=Al Green - I'm Still In Love With You
TTITLE2=Otis Redding - I Can't Turn You Loose
TTITLE3=Muddy Waters - Still A Fool
TTITLE4=Robert Johnson - 32-20 Blues
TTITLE5=Eddie Cochran - C'mon Everybody
TTITLE6=Little Richard - The Girl Can't Help It
TTITLE7=Earl Bostic - Flamingo
TTITLE8=Andre Williams - Jail Bait
TTITLE9=Sly and The Family Stone - If You Want Me To Stay
TTITLE10=The Itals - In A Dis A Time
TTITLE11=Sade - By Your Side
TTITLE12=Aretha Franklin - Until You Come Back To Me (That's What I'm Gonna Do)
TTITLE13=The Isley Brothers - This Old Heart Of Mine Is Weak
TTITLE14=Muddy Waters - You Shook Me
TTITLE15=The Beach Boys - I Just Wasn't Made For These Times
EXTD=YEAR: 2003
EXTT0=
EXTT1=
EXTT2=
EXTT3=
EXTT4=
EXTT5=
EXTT6=
EXTT7=
EXTT8=
EXTT9=
EXTT10=
EXTT11=
EXTT12=
EXTT13=
EXTT14=
EXTT15=
PLAYORDER=
